<?xml version="1.0" encoding="utf-8"?>
<!-- Svg Vector Icons : http://www.onlinewebfonts.com/icon -->
<!DOCTYPE svg PUBLIC "-//W3C//DTD SVG 1.1//EN" "http://www.w3.org/Graphics/SVG/1.1/DTD/svg11.dtd">
<svg version="1.1" xmlns="http://www.w3.org/2000/svg" xmlns:xlink="http://www.w3.org/1999/xlink" x="0px" y="0px" viewBox="0 0 1000 1000" enable-background="new 0 0 1000 1000" xml:space="preserve">
<metadata> Svg Vector Icons : http://www.onlinewebfonts.com/icon </metadata>
<g><g transform="translate(0.000000,511.000000) scale(0.100000,-0.100000)"><path d="M4957,5085.5c-101.9-29.4-237.8-151.7-285.3-255.9c-38.5-86.1-43-165.3-43-978.2v-883.1l56.6-115.5c81.5-160.8,201.5-240,382.7-251.3c160.8-11.3,274,34,380.4,147.2c129.1,135.9,131.3,156.2,131.3,1086.9c0,538.9-9.1,887.6-24.9,944.2c-13.6,49.8-63.4,126.8-117.8,181.2C5303.5,5092.3,5133.7,5137.6,4957,5085.5z"/><path d="M2640.6,4428.9c-176.6-52.1-323.8-298.9-287.6-489.1c15.9-88.3,812.9-1492.2,901.2-1589.6c63.4-67.9,210.6-135.9,296.6-138.1c276.3-2.3,502.7,255.9,455.1,514c-15.9,88.3-788,1451.4-892.2,1576C3005.2,4431.1,2821.8,4481,2640.6,4428.9z"/><path d="M7364,4087c-38.5-31.7-833.3-1401.6-833.3-1437.9c0-43,86-101.9,129.1-88.3c27.2,9,197,283,437,697.4c217.4,375.9,403.1,699.7,412.1,722.3c15.8,43-38.5,133.6-81.5,133.6C7411.6,4114.1,7384.4,4100.6,7364,4087z"/><path d="M983.1,2705.7c-117.7-34-194.7-97.4-246.8-206c-81.5-169.8-52.1-351,79.3-473.3c70.2-63.4,1306.5-785.7,1478.6-862.7c74.7-31.7,126.8-40.8,203.8-29.4c215.1,29.4,353.2,190.2,351,414.4c0,219.6-29.4,242.3-837.8,708.7C1157.5,2751,1150.7,2753.3,983.1,2705.7z"/><path d="M8353.6,2033.2c-384.9-224.2-708.7-425.7-720.1-448.4c-27.2-63.4,18.1-160.8,83.8-178.9c47.5-11.3,181.2,56.6,697.4,355.5c815.2,466.5,806.1,461.9,824.2,529.8c18.1,74.7-43,147.2-124.5,147.2C9080.4,2438.5,8770.2,2273.2,8353.6,2033.2z"/><path d="M303.8,328.1C190.6,269.3,100,126.6,100,4.3c2.3-104.2,77-246.8,160.8-307.9l77-54.4l887.6-6.8c989.5-6.8,991.8-6.8,1105,142.6c140.4,183.4,81.5,446.1-124.5,550.2c-99.6,49.8-113.2,49.8-951,49.8C417,378,403.4,378,303.8,328.1z"/><path d="M8059.2,119.8c-72.5-72.5-72.5-158.5,0-228.7l54.3-56.6h840.1h840.1l58.9,58.9c45.3,45.3,54.3,70.2,43,129c-29.4,144.9,0,140.4-930.6,147.2l-849.1,6.8L8059.2,119.8z"/><path d="M2353-1209.4c-124.5-38.5-1489.9-844.6-1535.2-905.7c-67.9-92.9-74.7-242.3-18.1-353.3c58.9-117.7,212.8-199.3,335.1-181.2c43,9.1,403,201.5,817.4,439.3c765.4,443.8,801.6,471,833.3,634c18.1,90.6-63.4,267.2-149.4,326.1C2563.6-1198,2441.3-1179.9,2353-1209.4z"/><path d="M7672-1352c-122.3-54.4-154-228.7-54.4-319.3c22.6-20.4,351-217.4,729.1-434.8c729.1-423.4,797.1-450.6,899-360c65.7,58.9,83.8,181.1,38.5,249.1c-18.1,31.7-120,104.2-221.9,165.3c-489.1,287.6-1234.1,706.5-1274.8,717.8C7762.6-1327.1,7710.5-1336.2,7672-1352z"/><path d="M3485.2-2361.9c-38.5-11.3-95.1-49.8-126.8-83.8c-72.5-77-849.1-1424.3-869.5-1508c-40.8-154,101.9-332.9,276.3-348.7c190.2-18.1,212.8,9.1,665.7,797.1c224.2,387.2,416.6,733.7,430.2,774.4c34,101.9-9.1,237.8-95.1,310.2c-38.5,31.7-81.5,58.9-95.1,58.9c-15.9,0-47.6,4.5-72.5,9.1C3573.5-2346.1,3521.4-2350.6,3485.2-2361.9z"/><path d="M6553.4-2436.6c-95.1-31.7-167.6-151.7-149.4-246.8c6.8-34,199.3-384.9,425.7-778.9c303.4-523.1,430.2-724.6,475.5-747.2c81.5-43,176.6-40.8,242.3,4.5c65.7,47.6,122.3,178.9,101.9,242.3c-29.5,99.6-833.3,1469.6-878.6,1499C6693.8-2416.2,6637.2-2409.5,6553.4-2436.6z"/><path d="M5002.3-2812.5c-24.9-11.3-70.2-47.6-101.9-81.5l-56.6-61.1v-892.1v-892.1l74.7-72.5c63.4-63.4,88.3-74.7,185.7-74.7s122.3,11.3,185.7,74.7l74.7,72.5v894.4v894.4l-70.2,70.2C5219.7-2805.7,5086.1-2776.3,5002.3-2812.5z"/></g></g>
</svg>