<svg id="eoTnJhYuc4I1" xmlns="http://www.w3.org/2000/svg" xmlns:xlink="http://www.w3.org/1999/xlink" viewBox="0 0 512 512" shape-rendering="geometricPrecision" text-rendering="geometricPrecision"><g transform="matrix(.999797-.020153 0.020153 0.999797-5.107256 5.211255)"><ellipse rx="51.2" ry="51.2" transform="matrix(3.010079 0 0 3.010079 256.000008 256)" fill="#f6f7eb" stroke-width="0"/><ellipse rx="10" ry="10" transform="matrix(.650737 0 0 0.650737 255.995973 256.004556)" fill="#8f6593" stroke-width="0"/><path d="M0,0h230.616156v58.569183L0,58.569183L0,0Z" transform="matrix(.674566 0 0-.22239 256 262.5126)" fill="#593c5c" stroke-width="0"/><path d="M0,0h230.616156l.431023,6.781679L0.003858,58.558824L0,0Z" transform="matrix(.674566 0 0-.22239 256 262.5126)" fill="#3a263c" stroke-width="0"/><path d="M101.88395,255.99999c0-85.11594,69.0001-154.11604,154.11604-154.11604s154.11604,69.0001,154.11604,154.11604-69.0001,154.11604-154.11604,154.11604-154.11604-69.0001-154.11604-154.11604ZM256.00001,399.52952c79.26917,0,143.52952-64.26036,143.52952-143.52952s-64.26036-143.52952-143.52952-143.52952-143.52952,64.26036-143.52952,143.52952s64.26036,143.52952,143.52952,143.52952Z" transform="matrix(.95987 0 0 0.95987 10.273287 10.27328)" fill="#654368" stroke-width="0"/><path d="M424.849,336.04c4.01-14.956,27.57-27.91,27.57-44.118c0-16.29-23.56-29.244-27.57-44.2-4.092-15.454,9.693-38.431,1.84-51.968-.384-.665-.996-1.15-1.461-1.75-.334-.428-.674-.856-1.053-1.26-9.938-10.644-33.25-11.199-43.441-21.472-.755-.75-1.424-1.506-2.007-2.338-8.454-11.146-9.604-32.177-19.665-41.352-.22-.204-.461-.384-.69-.571-.681-.563-1.273-1.245-2.039-1.694-12.505-7.213-32.822,3.79-48.097,2.469-.558-.05-1.122-.11-1.652-.196-.779-.114-1.558-.237-2.305-.433-14.953-4.01-27.906-27.575-44.114-27.575-16.294,0-29.244,23.565-44.2,27.575-.742.196-1.514.314-2.289.433-.53.086-1.094.146-1.657.196-15.217,1.318-35.595-9.682-48.022-2.469-4.512,2.591-7.523,7.27-9.861,12.701-4.846,11.194-7.102,25.816-14.54,33.254-10.269,10.273-33.519,10.828-43.51,21.472-.38.404-.722.832-1.057,1.26-.47.6-1.086,1.086-1.469,1.75-7.854,13.537,5.932,36.514,1.836,51.968-4.01,14.956-27.571,27.91-27.571,44.2c0,16.209,23.561,29.162,27.571,44.118c4.096,15.454-9.69,38.431-1.836,51.968.387.661,1.004,1.15,1.473,1.754.334.424.673.848,1.049,1.248c9.987,10.648,33.242,11.203,43.514,21.48.669.669,1.338,1.42,2.007,2.256c8.371,11.138,9.449,32.21,19.607,41.41.237.212.49.4.73.599.69.559,1.285,1.241,2.056,1.69c12.431,7.213,32.822-3.798,48.039-2.473.554.054,1.106.11,1.628.192.779.118,1.554.241,2.301.441c14.956,4.01,27.906,27.575,44.2,27.575c16.209,0,29.162-23.565,44.114-27.575.75-.2,1.534-.322,2.317-.441.522-.082,1.073-.138,1.624-.192c15.274-1.33,35.6,9.686,48.113,2.473c4.512-2.591,7.437-7.27,9.778-12.701c4.843-11.194,7.099-25.816,14.622-33.254c10.195-10.277,33.511-10.832,43.449-21.48.371-.4.71-.824,1.041-1.248.469-.604,1.081-1.094,1.465-1.754c7.855-13.536-5.93-36.513-1.838-51.968Zm-17.127-44.2c0,50.381-25.319,94.915-63.922,121.568-23.809,16.462-52.551,26.07-83.634,26.07-39.77,0-75.867-15.793-102.434-41.442-27.91-26.821-45.204-64.505-45.204-106.196c0-50.299,25.315-94.834,63.918-121.486c23.814-16.462,52.637-26.07,83.721-26.07c39.769,0,75.781,15.793,102.353,41.442c27.903,26.821,45.202,64.505,45.202,106.114Z" transform="translate(-4.122-35.881)" fill="#8f6593"/></g></svg>